# xmcd
#
# Track frame offsets: 
#        150
#        13200
#        26590
#        39302
#        51260
#        62862
#        73660
#        87422
#        97605
#        109329
#        121610
#        133657
#        146757
#        159937
#        172095
#        184527
#        198002
#        210097
#        221722
#        236830
#        249482
#        261222
#        274842
#        287585
#        300552
#        314040
#
# Disc length: 4415 seconds
#
# Revision: 3
# Processed by: cddbd v1.5.2PL0 Copyright (c) Steve Scherf et al.
# Submitted via: ExactAudioCopyFreeDBPlugin 1.0
#
DISCID=78113d1a
DTITLE=Diana Ross and The Supremes - Anthology
DYEAR=2001
DGENRE=Soul
TTITLE0=I Want a Guy
TTITLE1=Buttered Popcorn (first pressing)
TTITLE2=The Tears
TTITLE3=Your Heart Belongs to Me
TTITLE4=Let Me Go the Right Way
TTITLE5=A Breath Taking Guy
TTITLE6=When the Lovelight Starts Shining Through His Eyes
TTITLE7=Run Run Run
TTITLE8=Where Did Our Love Go
TTITLE9=Baby Love
TTITLE10=Come See About Me
TTITLE11=Stop! In the Name of Love
TTITLE12=Back in My Arms Again
TTITLE13=Whisper You Love Me Boy (single Mix)
TTITLE14=Mother Dear
TTITLE15=Nothing But Heartaches
TTITLE16=I Hear a Symphony
TTITLE17=My World is Empty Without You
TTITLE18=Love is Like an Itching in My Heart (extended version)
TTITLE19=You Can't Hurry Love
TTITLE20=This Old Heart of Mine (Is Weak for You)
TTITLE21=You Keep Me Hanging On (alterate mix)
TTITLE22=Love is Here and Now You're Gone
TTITLE23=The Happening
TTITLE24=Things are Changing
TTITLE25=He (stereo mix)
EXTD=YEAR: 2001 ID3G:  17
EXTT0=
EXTT1=
EXTT2=
EXTT3=
EXTT4=
EXTT5=
EXTT6=
EXTT7=
EXTT8=
EXTT9=
EXTT10=
EXTT11=
EXTT12=
EXTT13=
EXTT14=
EXTT15=
EXTT16=
EXTT17=
EXTT18=
EXTT19=
EXTT20=
EXTT21=
EXTT22=
EXTT23=
EXTT24=
EXTT25=
PLAYORDER=
